<svg xmlns="http://www.w3.org/2000/svg" version="1.1" xmlns:xlink="http://www.w3.org/1999/xlink" viewBox="0 0 200 200"><rect width="200" height="200" fill="url('#gradient')"></rect><defs><linearGradient id="gradient" gradientTransform="rotate(45 0.5 0.5)"><stop offset="0%" stop-color="#ceaa96"></stop><stop offset="100%" stop-color="#8fa983"></stop></linearGradient></defs><g><g fill="#445272" transform="matrix(4.7813229571984435,0,0,4.7813229571984435,7.005027466989219,133.97567287994266)" stroke="#c8512e" stroke-width="0.2"><path d="M8.41-3.78L8.41-3.78Q8.41-4.53 7.88-4.95Q7.34-5.37 6.01-5.82Q4.67-6.27 3.82-6.69L3.82-6.69Q1.05-8.05 1.05-10.42L1.05-10.42Q1.05-11.60 1.74-12.50Q2.43-13.41 3.69-13.91Q4.95-14.41 6.52-14.41L6.52-14.41Q8.06-14.41 9.27-13.87Q10.49-13.32 11.16-12.31Q11.84-11.30 11.84-10L11.84-10L8.42-10Q8.42-10.87 7.89-11.35Q7.35-11.83 6.45-11.83L6.45-11.83Q5.53-11.83 5.00-11.42Q4.46-11.02 4.46-10.39L4.46-10.39Q4.46-9.84 5.05-9.40Q5.63-8.96 7.11-8.48Q8.58-8.01 9.53-7.46L9.53-7.46Q11.84-6.13 11.84-3.80L11.84-3.80Q11.84-1.93 10.43-0.87Q9.02 0.20 6.57 0.20L6.57 0.20Q4.84 0.20 3.44-0.42Q2.04-1.04 1.33-2.12Q0.63-3.20 0.63-4.61L0.63-4.61L4.06-4.61Q4.06-3.47 4.65-2.92Q5.24-2.38 6.57-2.38L6.57-2.38Q7.42-2.38 7.92-2.75Q8.41-3.12 8.41-3.78ZM16.29-14.22L19.11-3.87L21.94-14.22L25.77-14.22L20.99 0L17.24 0L12.49-14.22L16.29-14.22ZM34.60 0L32.09-5.02L30.23-5.02L30.23 0L26.81 0L26.81-14.22L32.40-14.22Q34.93-14.22 36.36-13.10Q37.78-11.97 37.78-9.92L37.78-9.92Q37.78-8.44 37.18-7.46Q36.58-6.48 35.30-5.88L35.30-5.88L38.27-0.15L38.27 0L34.60 0ZM30.23-11.57L30.23-7.67L32.40-7.67Q33.38-7.67 33.87-8.18Q34.37-8.69 34.37-9.61Q34.37-10.53 33.87-11.05Q33.37-11.57 32.40-11.57L32.40-11.57L30.23-11.57Z"></path></g></g></svg>