<svg xmlns="http://www.w3.org/2000/svg" enable-background="new 0 0 1920 1080" viewBox="57.69 412.7 1804.61 254.52"><path d="m244.2 412.7c-26.3 0-49.6 12.9-63.8 32.8-1.5 2.1-.8 5.1 1.6 6.3 14.4 6.9 49.6 29.8 47 90.2-1.7 40.3-16.7 73.8-24.7 88.9-1.7 3.3 1.3 7 4.9 6 29.1-8.1 108.3-50 112.5-134.8 1.3-26-5.6-52-25-69.3-14-12.5-32.4-20.1-52.5-20.1z" fill="#5292c2"/><path d="m209.3 531.3c0-41.9-33.9-75.8-75.8-75.8s-75.8 33.9-75.8 75.8c0 0-.1 2.6.3 7.1.3 3.5.9 6.9 1.7 10.3 6.2 28 30.6 83.3 127.2 118.3 2.9 1.1 5.5-2.2 3.9-4.8-5.3-8.5-16.5-22.4-17.3-41.1-1.4-32.2 16.9-33.5 27.3-55.1.4-.9 1.4-2.9 1.4-2.9 4.6-9.6 7.1-20.4 7.1-31.8zm-116.1 7.6c-6.6 0-12-5.4-12-12s5.4-12 12-12 12 5.4 12 12-5.4 12-12 12zm38.5 0c-6.6 0-12-5.4-12-12s5.4-12 12-12 12 5.4 12 12-5.4 12-12 12zm38.9 0c-6.6 0-12-5.4-12-12s5.4-12 12-12c6.3 0 12 5.4 12 12s-5.4 12-12 12z" fill="#de8773"/><g fill="#5292c2"><path d="m506.7 459.6c0 6-1.2 11.6-6.8 11.6-3.7 0-5.4-2.3-8.7-6.6-3.9-5.2-9.1-9.9-15.7-9.9-3.5 0-7.5 1.5-10.6 5.8-3.5 5.4-5.4 12.4-5.4 28.4 0 1.2.8 1.9 2.1 1.9 2.9 0 8.9 0 13.3-.4 5.2-.4 8.5-1 12.4-1 3.7 0 7.5.2 7.5 3.9 0 1.2-.4 2.5-.8 4.3-.4 2.3-.6 5-3.1 6.4-1.4.8-3.5 1-6.2 1-5 0-11.6-.8-16.8-.8-1.7 0-3.5 0-5.6.2-1.9.2-2.5.6-2.5 2.5v49.1c0 14.3 1 18.8 2.5 22 1.4 3.1 3.9 5.4 7 7.2 2.5 1.5 4.3 2.5 4.3 5.4 0 3.1-2.9 4.6-6.8 4.6h-40c-3.9 0-6.8-1.5-6.8-4.6 0-2.7 2.1-3.9 4.4-5.4 2.9-1.9 5.6-4.1 7-7.2 1.5-3.1 2.5-7.5 2.5-22v-50.1c0-1-.4-1.5-1.9-1.5-1 0-12.6 0-12.6 0-1.9 0-2.9-.6-2.9-2.7v-8.3c0-1.9 1-2.7 2.9-2.7h13c1.2 0 1.9-.4 1.9-1.9 1-9.9 3.3-19.1 8.3-26.5 9.5-14.3 25.5-21.7 43.5-21.7 6.4 0 11.6 1 14.9 3.5 4.6 3.9 5.7 10.5 5.7 15.5z"/><path d="m568.7 590.5c0 3.1-3.1 4.6-6.8 4.6h-39.8c-3.7 0-6.8-1.5-6.8-4.6 0-2.5 1.9-3.9 4.4-5.4 3.3-1.9 6-4.3 7.2-7.2 1.5-3.1 2.5-7.7 2.5-22v-31.9c0-7.5 0-12-1.7-15.1-1.5-2.7-3.5-4.3-7.3-5.8-2.5-1-5.6-2.3-5.6-5 0-2.5 1.5-4.1 6.2-5.2 7.2-1.5 15.1-3.7 20.5-5.8 3.9-1.5 5.8-2.5 8.3-2.5 2.9 0 5 1.4 5 6.2v65c0 14.3 1 18.8 2.5 21.7s3.9 5.4 7 7.5c2.6 1.7 4.4 3 4.4 5.5z"/><path d="m705.8 590.3c0 3.3-3.1 4.8-7 4.8h-39.8c-3.7 0-6.8-1.5-6.8-4.8 0-2.5 2.1-3.7 4.4-5.2 3.3-2.1 5.8-4.6 7.2-7.5s2.5-7.5 2.5-22v-29c0-14.1-7.5-22.4-19.5-22.4-5.2 0-11 1.7-15.5 6.2-7.5 7.5-9.5 18.6-9.5 45.1 0 14.5 1 19.1 2.5 22 1.5 3.1 3.9 5.6 7 7.5 2.7 1.7 4.3 2.7 4.3 5.2 0 3.3-2.9 4.8-6.8 4.8h-39.3c-3.9 0-6.8-1.5-6.8-4.8 0-2.5 2.1-3.7 4.4-5.2 2.9-1.9 5.8-4.3 7.2-7.5 1.2-2.9 2.3-7.5 2.3-22v-31.5c0-7.5 0-12-1.7-15.3-1.5-2.9-3.7-4.3-7.2-5.6-2.1-.8-5.8-1.9-5.8-5 0-2.5 1.7-4.1 6.4-5.2 7-1.5 14.9-3.5 20.3-5.8 3.1-1.2 5.2-2.5 8.1-2.5s5.2 1.4 5.2 6.2v11.6c0 .6.2 1 .8 1 .4 0 .6-.4 1-1 7.5-11 19.3-17.8 33.5-17.8 11.4 0 22 4.8 28.2 13.9 4.6 6.8 6.4 15.1 6.4 28v29.2c0 14.5 1 19.1 2.5 22s3.7 5.6 7 7.5c2.6 1.3 4.5 2.6 4.5 5.1z"/><path d="m834.7 583.8c0 2.7-1.5 3.9-6.4 5.2-8.5 2.1-17.2 4.6-24 7.2-1.2.4-2.7 1-4.6 1-2.5 0-4.8-1.5-4.8-6.2v-9.7c0-1.5-.6-1.9-1.5-1.9-.4 0-1 .2-1.7 1-8.1 9.9-20.1 16.8-33.3 16.8-6 0-12.2-1.5-18.4-4.6-17-8.7-24.2-27.1-24.2-46 0-33.1 21.1-62.1 51.8-62.1 8.9 0 17.8 2.5 25.7 6.6.4.2.6.2.8.2.4 0 .8-.4.8-1v-10.8c0-7.5-.2-12-1.9-15.3-1.2-2.5-3.1-4.1-7-5.6-2.9-1-5.8-2.3-5.8-5s1.5-3.9 6.2-5.2c8.7-2.1 15.7-4.1 21.7-6.4 3.5-1.2 4.8-1.9 7-1.9 2.7 0 4.8 1.5 4.8 6.2v111.4c0 7.5 0 12.2 1.7 15.3 1.4 2.7 3.7 4.1 7.2 5.6 2.7 1.3 5.9 2.8 5.9 5.2zm-39.8-44.5c0-26.5-11-41.4-26.5-41.4-16.8 0-26.3 15.7-26.3 40.2 0 23.2 10.6 40.6 26.9 40.6 13.9 0 25.9-11.6 25.9-39.4z"/><path d="m1005.1 584.5c0 1.5-.4 2.9-1.5 4.3-3.3 5-10.4 8.5-17.8 8.5-7.9 0-16.2-4.6-18.2-16.8 0-.2-.8-.2-.8-.2-7.9 11.6-21.3 17-34 17-16.8 0-32.5-9.7-32.5-27.1 0-8.9 4.6-18.2 13.9-24 10.6-6.6 24.2-9.5 34.6-14.3 11.4-5.4 16.6-11.4 16.6-19.3 0-6-3.3-11.8-10.8-13.9-1.7-.4-3.3-.6-5.2-.6-5 0-10.4 1.7-15.1 5.6-6.6 5.6-9.5 12.2-12.4 15.5-1.7 2.1-3.3 2.9-6.4 2.9-5.4 0-6.8-4.8-6.8-11.6 0-5.4 1-12.2 3.7-15.5 2.9-3.7 9.1-6.4 16.4-8.1 6-1.5 13.9-2.3 20.7-2.3 25.3 0 43.1 14.1 43.1 35.4 0 14.9-.8 31.1-.8 43.9 0 10.8 1.2 16.6 5.8 16.6 1 0 2.3-.2 3.5-.2 2.6 0 4 1.9 4 4.2zm-39.7-45.8c0-.4-.2-.6-.6-.6s-.6.2-.6.2c-6.8 5-18.2 7.9-26.9 13.9-6.6 4.6-9.1 10.4-9.1 15.5 0 8.7 6.4 13.9 14.5 13.9 7.3 0 15.1-4.1 19.3-12.4 3.3-7 3.5-14.5 3.5-26.3v-4.2z"/><path d="m1194.9 590.3c0 3.3-3.1 4.8-7 4.8h-39.8c-3.7 0-6.8-1.5-6.8-4.8 0-2.5 2.1-3.7 4.3-5.2 3.3-2.1 5.8-4.6 7.2-7.5 1.5-2.9 2.5-7.5 2.5-22v-29c0-14.3-7-22.4-19.5-22.4-5.2 0-11 1.7-15.5 6.2-7.5 7.5-9.5 18.6-9.5 45.1 0 14.5 1 19.1 2.5 22 1.5 3.1 3.9 5.6 7 7.5 2.7 1.7 4.4 2.7 4.4 5.2 0 3.3-2.9 4.8-6.8 4.8h-39.3c-3.9 0-6.8-1.5-6.8-4.8 0-2.5 2.1-3.7 4.3-5.2 2.9-1.9 5.8-4.3 7.2-7.5 1.2-2.9 2.3-7.5 2.3-22v-76c0-7.5 0-12-1.7-15.3-1.5-2.9-3.7-4.3-7.2-5.6-2.1-.8-5.8-1.9-5.8-5 0-2.5 1.7-4.1 6.4-5.2 8.5-1.9 17.2-4.6 23.8-7.2 1.7-.6 3.1-1 4.6-1 2.7 0 5.2 1.5 5.2 6.2v56.1c0 .4.2.8.8.8.2 0 .4 0 .6-.4 7.7-11.6 19.7-18.4 34-18.4 11.4 0 22 4.8 28.2 13.9 4.6 6.8 6.4 15.1 6.4 28v29.2c0 14.5 1 19.1 2.5 22s3.7 5.6 7 7.5c2.4 1.4 4.5 2.7 4.5 5.2z"/><path d="m1296.5 573.4c0 4.4-6.2 11.2-13.3 15.7-8.9 5.8-20.5 9.1-32.1 9.1-19.5 0-38.9-9.1-47.4-31.3-2.5-6.8-3.9-14.3-3.9-21.7 0-20.7 9.9-42 30-53.2 7.5-4.1 15.9-6.2 24.4-6.2 10.8 0 21.1 3.3 29.2 9.9 11 9.1 15.1 21.5 15.1 30.4 0 9.3-2.7 14.3-17 14.3 0 0-51.8 0-52.8 0-1.7 0-2.5.8-2.5 2.3 0 3.3.4 14.1 7.2 23.6 7 9.7 17 13.3 26.9 13.3 19.3 0 26.1-10.6 31.7-10.6 3.1 0 4.5 2.3 4.5 4.4zm-67.9-45.8h28.8c10.4 0 15.3-2.5 15.3-10.1 0-8.7-7.3-18.8-20.7-18.8-19.3 0-25.5 22.2-25.5 26.9 0 1.6.4 2 2.1 2z"/><path d="m1362.4 590.5c0 3.1-3.1 4.6-6.8 4.6h-39.8c-3.7 0-6.8-1.5-6.8-4.6 0-2.5 1.9-3.9 4.4-5.4 3.3-1.9 6-4.3 7.2-7.2 1.5-3.1 2.5-7.7 2.5-22v-76.2c0-7.5 0-12-1.7-15.1-1.5-2.7-3.5-4.4-7.2-5.8-2.5-1-5.6-2.3-5.6-5 0-2.5 1.5-4.1 6.2-5.2 7.2-1.5 15.1-3.7 20.5-5.8 3.9-1.5 5.8-2.5 8.3-2.5 2.9 0 5 1.5 5 6.2v109.3c0 14.3 1 18.8 2.5 21.7s3.9 5.4 7 7.5c2.5 1.7 4.3 3 4.3 5.5z"/><path d="m1487.2 535.2c0 33.1-20.9 62.1-51.6 62.1-8.9 0-17.8-2.5-25.7-6.6-.4-.2-.6-.2-.8-.2-.4 0-.8.2-.8 1v5.8c0 13.3 1.2 17.6 2.5 20.3 1.5 3.1 3.9 5.6 7 7.5 2.5 1.4 4.4 2.9 4.4 5.4 0 3.1-2.9 4.6-6.8 4.6h-39.4c-3.9 0-6.8-1.5-6.8-4.6 0-2.5 1.7-3.7 4.3-5.4 3.1-1.9 5.6-4.4 7-7.5 1.2-2.9 2.5-7.2 2.5-21.5 0-14.1 0-72.1 0-72.1 0-7.5 0-12-1.7-15.3-1.2-2.5-3.7-4.3-7.2-5.6-2.9-1-5.8-2.1-5.8-5 0-2.7 1.7-4.1 6.4-5.2 8.5-1.9 16.2-4.1 23-6.8 2.1-.8 3.9-1.4 5.6-1.4 2.7 0 5 1.4 5 6.2v9.7c0 1.2.6 1.9 1.2 1.9.4 0 1-.2 1.7-1 8.1-10.1 20.1-16.8 33.5-16.8 6 0 12.2 1.2 18.4 4.6 16.8 8.8 24.1 26.8 24.1 45.9zm-26.3 8.7c0-23-10.1-40.6-26.9-40.6-14.3 0-25.9 12.6-25.9 39.3.2 26.7 11.2 41.6 26.9 41.6 17.6.1 25.9-18.6 25.9-40.3z"/><path d="m1549.8 590.5c0 3.1-3.1 4.6-6.8 4.6h-39.8c-3.7 0-6.8-1.5-6.8-4.6 0-2.5 1.9-3.9 4.3-5.4 3.3-1.9 6-4.3 7.2-7.2 1.5-3.1 2.5-7.7 2.5-22v-76.2c0-7.5 0-12-1.7-15.1-1.5-2.7-3.5-4.4-7.2-5.8-2.5-1-5.6-2.3-5.6-5 0-2.5 1.4-4.1 6.2-5.2 7.2-1.5 15.1-3.7 20.5-5.8 3.9-1.5 5.8-2.5 8.3-2.5 2.9 0 5 1.5 5 6.2v109.3c0 14.3 1 18.8 2.5 21.7 1.4 2.9 3.9 5.4 7 7.5 2.6 1.7 4.4 3 4.4 5.5z"/><path d="m1617.3 590.5c0 3.1-3.1 4.6-6.8 4.6h-39.8c-3.7 0-6.8-1.5-6.8-4.6 0-2.5 1.9-3.9 4.4-5.4 3.3-1.9 6-4.3 7.2-7.2 1.5-3.1 2.5-7.7 2.5-22v-31.9c0-7.5 0-12-1.7-15.1-1.5-2.7-3.5-4.3-7.3-5.8-2.5-1-5.6-2.3-5.6-5 0-2.5 1.5-4.1 6.2-5.2 7.2-1.5 15.1-3.7 20.5-5.8 3.9-1.5 5.8-2.5 8.3-2.5 2.9 0 5 1.4 5 6.2v65c0 14.3 1 18.8 2.5 21.7s3.9 5.4 7 7.5c2.5 1.7 4.4 3 4.4 5.5zm-9.5-132.7c0 9.6-7.7 17.3-17.3 17.3s-17.3-7.7-17.3-17.3 7.7-17.3 17.3-17.3 17.3 7.8 17.3 17.3z"/><path d="m1757.9 590.3c0 3.3-3.1 4.8-7 4.8h-39.8c-3.7 0-6.8-1.5-6.8-4.8 0-2.5 2.1-3.7 4.4-5.2 3.3-2.1 5.8-4.6 7.2-7.5 1.5-2.9 2.5-7.5 2.5-22v-29c0-14.1-7.5-22.4-19.5-22.4-5.2 0-11 1.7-15.5 6.2-7.5 7.5-9.5 18.6-9.5 45.1 0 14.5 1 19.1 2.5 22 1.4 3.1 3.9 5.6 7 7.5 2.7 1.7 4.3 2.7 4.3 5.2 0 3.3-2.9 4.8-6.8 4.8h-39.3c-3.9 0-6.8-1.5-6.8-4.8 0-2.5 2.1-3.7 4.4-5.2 2.9-1.9 5.8-4.3 7.2-7.5 1.2-2.9 2.3-7.5 2.3-22v-31.5c0-7.5 0-12-1.7-15.3-1.5-2.9-3.7-4.3-7.2-5.6-2.1-.8-5.8-1.9-5.8-5 0-2.5 1.7-4.1 6.4-5.2 7-1.5 14.9-3.5 20.3-5.8 3.1-1.2 5.2-2.5 8.1-2.5s5.2 1.4 5.2 6.2v11.6c0 .6.2 1 .8 1 .4 0 .6-.4 1-1 7.5-11 19.3-17.8 33.5-17.8 11.4 0 22 4.8 28.2 13.9 4.6 6.8 6.4 15.1 6.4 28v29.2c0 14.5 1 19.1 2.5 22s3.7 5.6 7 7.5c2.6 1.3 4.5 2.6 4.5 5.1z"/><path d="m1860.3 572.2c0 4.4-6.2 11.2-13.3 15.7-8.9 5.8-20.5 9.1-32.1 9.1-19.5 0-38.9-9.1-47.4-31.3-2.5-6.8-3.9-14.3-3.9-21.7 0-20.7 9.9-42 30-53.2 7.5-4.1 15.9-6.2 24.4-6.2 10.8 0 21.1 3.3 29.2 9.9 11 9.1 15.1 21.5 15.1 30.4 0 9.3-2.7 14.3-17 14.3 0 0-51.8 0-52.8 0-1.7 0-2.5.8-2.5 2.3 0 3.3.4 14.1 7.2 23.6 7 9.7 17 13.3 26.9 13.3 19.3 0 26.1-10.6 31.7-10.6 3 .1 4.5 2.4 4.5 4.4zm-67.9-45.7h28.8c10.4 0 15.3-2.5 15.3-10.1 0-8.7-7.2-18.8-20.7-18.8-19.3 0-25.5 22.2-25.5 26.9 0 1.6.4 2 2.1 2z"/><circle cx="541.9" cy="457.8" r="17.3"/></g></svg>